<svg width="739" height="824" viewBox="0 0 739 824" fill="none" xmlns="http://www.w3.org/2000/svg">
<path d="M300.67 20.1784C342.621 -6.72609 396.379 -6.72615 438.33 20.1784L680.232 175.329C716.85 198.814 738.999 239.356 739 282.893V537.707C739 580.795 717.301 620.983 681.292 644.585L439.389 803.135C396.94 830.955 342.06 830.955 299.611 803.135L57.7084 644.585C21.6994 620.983 0 580.795 0 537.707V282.893C0.000558659 239.356 22.1504 198.814 58.7676 175.329L300.67 20.1784ZM209.557 343.292C183.132 343.292 161.71 364.74 161.708 391.195V449.744C161.708 470.321 178.37 487.002 198.924 487.002H246.773C267.327 487.002 283.989 470.321 283.989 449.744V391.195C283.987 364.74 262.565 343.292 236.14 343.292H209.557ZM496.651 343.292C470.225 343.292 448.802 364.739 448.802 391.195V449.744C448.802 470.321 465.464 487.002 486.018 487.002H533.866C554.42 487.002 571.082 470.321 571.082 449.744V391.195C571.082 364.739 549.659 343.292 523.233 343.292H496.651Z" fill="black"/>
</svg>
